<?xml version="1.0" encoding="UTF-8"?>
<svg version="1.1" xmlns="http://www.w3.org/2000/svg" width="512" height="512">
<path d="M0 0 C3.9375 0.5625 3.9375 0.5625 6.375 2.4375 C9.07968715 6.11587452 9.05565996 8.33098831 9.03515625 12.8828125 C9.03193359 14.13964844 9.02871094 15.39648438 9.02539062 16.69140625 C9.01701172 18.01011719 9.00863281 19.32882813 9 20.6875 C8.99498489 22.02734211 8.99042201 23.367186 8.98632812 24.70703125 C8.97451086 27.99223206 8.95803617 31.27734397 8.9375 34.5625 C10.67036255 34.53893433 10.67036255 34.53893433 12.43823242 34.51489258 C16.73389687 34.46049631 21.029531 34.42611467 25.32543945 34.39770508 C27.18291345 34.38264054 29.04035201 34.36218491 30.89770508 34.33618164 C33.57121539 34.29969541 36.24425444 34.2827503 38.91796875 34.26953125 C40.1588752 34.24630547 40.1588752 34.24630547 41.42485046 34.22261047 C46.06497761 34.22126324 49.23227778 34.44972714 52.9375 37.5625 C55.86981748 41.23808233 55.18825904 46.01305772 55.1328125 50.484375 C55.1299826 51.34436096 55.12715271 52.20434692 55.12423706 53.09039307 C55.1130615 55.83123821 55.08796179 58.57175398 55.0625 61.3125 C55.0524668 63.17317236 55.04334155 65.03384985 55.03515625 66.89453125 C55.01313076 71.45064732 54.97861897 76.00651786 54.9375 80.5625 C60.2175 80.5625 65.4975 80.5625 70.9375 80.5625 C70.92178955 79.4072583 70.9060791 78.2520166 70.88989258 77.06176758 C70.83549631 72.76610313 70.80111467 68.470469 70.77270508 64.17456055 C70.75764054 62.31708655 70.73718491 60.45964799 70.71118164 58.60229492 C70.67469541 55.92878461 70.6577503 53.25574556 70.64453125 50.58203125 C70.62904739 49.75476028 70.61356354 48.92748932 70.59761047 48.07514954 C70.59626324 43.43502239 70.82472714 40.26772222 73.9375 36.5625 C77.45279085 34.24341708 80.5419625 34.30881285 84.68687439 34.30180359 C85.36463395 34.29797804 86.04239351 34.29415249 86.74069124 34.29021102 C89.01071886 34.27989596 91.28049284 34.28387026 93.55053711 34.2878418 C95.17846409 34.2834945 96.80638903 34.27831129 98.43431091 34.27235413 C102.85577939 34.25895497 107.27716243 34.25838646 111.69864726 34.26091743 C115.38909614 34.26198649 119.07952769 34.25710543 122.76997286 34.252312 C131.47581213 34.2412137 140.18160825 34.24078127 148.88745117 34.24682617 C157.87043703 34.25286757 166.85326631 34.24055149 175.83622545 34.2192561 C183.54758324 34.20164701 191.25889115 34.19563764 198.97026831 34.19889385 C203.57641802 34.20070792 208.18245605 34.19805819 212.78858757 34.18417931 C217.11997292 34.17161679 221.45111396 34.17353005 225.7824955 34.18659019 C227.37199358 34.18895895 228.96150877 34.18621057 230.55098724 34.17796707 C232.72132313 34.16752286 234.89083576 34.17558067 237.06114197 34.1882782 C238.27547881 34.18811046 239.48981565 34.18794271 240.74095058 34.18776989 C244.2462486 34.59869447 246.133042 35.45644055 248.9375 37.5625 C250.43554751 40.55859502 250.07245659 43.62918943 250.06054783 46.91449928 C250.06170167 47.685017 250.06285552 48.45553471 250.06404433 49.24940145 C250.06671332 51.85847833 250.0621865 54.46749479 250.05775452 57.0765686 C250.05819016 58.95507903 250.05906494 60.83358939 250.06034368 62.71209943 C250.06258998 67.89530451 250.05856552 73.0784891 250.05356562 78.26169157 C250.04926324 83.84316732 250.05070739 89.42464183 250.0514679 95.00611877 C250.05199327 104.68345032 250.04884511 114.36077515 250.04323006 124.03810501 C250.03511682 138.03004929 250.03250002 152.02199031 250.03124207 166.01393668 C250.02905127 188.71274376 250.022399 211.41154664 250.01293945 234.11035156 C250.0037588 256.16536439 249.99667333 278.22037627 249.99243164 300.27539062 C249.99230011 300.95492301 249.99216859 301.6344554 249.99203308 302.33457968 C249.99071458 309.1585674 249.98943877 315.98255512 249.98819422 322.80654286 C249.97774868 380.05853107 249.96009833 437.31051537 249.9375 494.5625 C251.03449219 494.52769531 252.13148438 494.49289062 253.26171875 494.45703125 C254.71613045 494.42888135 256.1705588 494.40158248 257.625 494.375 C258.7068457 494.33729492 258.7068457 494.33729492 259.81054688 494.29882812 C264.42579346 494.23560557 267.25901677 494.74392194 270.9375 497.5625 C273.33036884 499.95536884 273.25800616 500.65697094 273.3125 503.9375 C273.34085937 504.70835937 273.36921875 505.47921875 273.3984375 506.2734375 C272.74322713 509.52727885 271.5586142 510.54081499 268.9375 512.5625 C266.25545967 512.95468577 263.98398686 513.100574 261.3037262 513.06586456 C260.13868799 513.07458521 260.13868799 513.07458521 258.95011365 513.08348203 C256.33174708 513.09815029 253.71430794 513.08416542 251.09594727 513.07043457 C249.20618235 513.07504079 247.31642101 513.08139183 245.42666721 513.08934355 C240.22140939 513.10609825 235.01644352 513.09776266 229.81118441 513.08539867 C224.20238002 513.07637557 218.59362705 513.09030426 212.98483276 513.10131836 C201.99234644 513.11913751 190.99996914 513.11524848 180.00747848 513.1036678 C171.07643852 513.09464709 162.14542919 513.09340356 153.21438599 513.09776306 C151.94496739 513.09837599 150.67554879 513.09898893 149.36766297 513.09962043 C146.78914602 513.10089929 144.21062908 513.10219614 141.63211215 513.1035108 C118.1237497 513.11460089 94.61546057 513.10308534 71.10711123 513.08214041 C49.63745631 513.06315735 28.16789628 513.06485583 6.69824219 513.08398438 C-17.41176714 513.10539345 -41.52171169 513.11382782 -65.63173389 513.10153532 C-68.20095125 513.10026108 -70.77016861 513.09900359 -73.33938599 513.09776306 C-74.60360569 513.09714596 -75.86782539 513.09652886 -77.17035478 513.09589306 C-86.0942855 513.09243428 -95.01818264 513.09827984 -103.94210815 513.10768127 C-114.81221895 513.11888092 -125.68221416 513.11590411 -136.55231166 513.0945583 C-142.10212999 513.08402047 -147.65175536 513.0799725 -153.20157242 513.09315491 C-158.27685094 513.10502814 -163.35175668 513.09860035 -168.42700112 513.0772447 C-170.26812117 513.07275704 -172.10927237 513.075093 -173.95037258 513.08474785 C-176.44361166 513.0968249 -178.93555597 513.08452666 -181.4287262 513.06586456 C-182.15186496 513.07522923 -182.87500373 513.08459389 -183.62005579 513.09424233 C-187.02932111 513.04286203 -188.77550644 512.78477439 -191.50640774 510.66971159 C-193.7799425 507.59096175 -193.62183858 505.39871692 -193.45703125 501.6875 C-193.0625 499.5625 -193.0625 499.5625 -191.25 497.0625 C-186.97291744 494.12964339 -182.85489619 494.44345969 -177.875 494.5 C-177.12541016 494.50451172 -176.37582031 494.50902344 -175.60351562 494.51367188 C-173.75647617 494.52543646 -171.90947787 494.54337135 -170.0625 494.5625 C-170.0643986 493.86786486 -170.0662972 493.17322973 -170.06825334 492.45754504 C-170.18007237 451.31466273 -170.26589664 410.17179802 -170.31782665 369.02879439 C-170.3240804 364.09194991 -170.33055199 359.15510574 -170.3371582 354.21826172 C-170.33846976 353.2353987 -170.33978131 352.25253568 -170.3411326 351.23988894 C-170.3629066 335.31225548 -170.40233908 319.38471199 -170.44826398 303.45713195 C-170.49497318 287.12165899 -170.52278366 270.78623324 -170.53294247 254.45069623 C-170.53981314 244.3656086 -170.56153609 234.28077522 -170.60208233 224.19576582 C-170.62845239 217.28603018 -170.63651406 210.37642654 -170.63000689 203.4666442 C-170.626795 199.47619903 -170.63181927 195.48619904 -170.65852737 191.49583244 C-170.68278447 187.84511804 -170.68413774 184.1951499 -170.66699447 180.54440179 C-170.66386742 178.59281605 -170.68550046 176.64123962 -170.70790654 174.68978 C-170.6979513 173.53577866 -170.68799606 172.38177732 -170.67773914 171.19280624 C-170.67963775 170.19490122 -170.68153635 169.19699619 -170.68349248 168.16885161 C-169.82043233 164.54652399 -168.15924016 163.50373806 -165.0625 161.5625 C-162.43113669 161.19546787 -160.23086724 161.05324284 -157.61010742 161.10839844 C-156.8778595 161.10781433 -156.14561157 161.10723022 -155.39117432 161.10662842 C-152.98294841 161.10940402 -150.57597705 161.14046898 -148.16796875 161.171875 C-146.49360327 161.17933931 -144.81922903 161.18503135 -143.14485168 161.18902588 C-138.74699606 161.20426739 -134.34967242 161.24353604 -129.95202637 161.2878418 C-125.46092932 161.32882673 -120.96974595 161.34704375 -116.47851562 161.3671875 C-107.67293349 161.41003208 -98.867783 161.47826497 -90.0625 161.5625 C-90.07249275 160.18853813 -90.07249275 160.18853813 -90.08268738 158.78681946 C-90.14282568 150.15002833 -90.18848828 141.51330763 -90.21793652 132.87635517 C-90.23358517 128.43611524 -90.25480877 123.99604848 -90.28881836 119.5559082 C-90.32144044 115.27003975 -90.33935904 110.98433776 -90.34713173 106.69835472 C-90.35267013 105.06409269 -90.36348535 103.42983965 -90.37969017 101.79564857 C-90.40150272 99.50459814 -90.40446539 97.21423346 -90.40307617 94.9230957 C-90.41306892 92.96784721 -90.41306892 92.96784721 -90.42326355 90.97309875 C-90.03796956 87.33059328 -89.24076126 85.46856947 -87.0625 82.5625 C-83.73747057 80.13393353 -80.5718113 80.33059717 -76.546875 80.3671875 C-75.29648438 80.37363281 -74.04609375 80.38007812 -72.7578125 80.38671875 C-71.45585937 80.40347656 -70.15390625 80.42023438 -68.8125 80.4375 C-67.49507813 80.44652344 -66.17765625 80.45554687 -64.8203125 80.46484375 C-61.56752538 80.48841467 -58.31510411 80.52131978 -55.0625 80.5625 C-55.08344727 79.34143555 -55.10439453 78.12037109 -55.12597656 76.86230469 C-55.19840159 72.33003476 -55.24430888 67.79781593 -55.28222656 63.26513672 C-55.30233632 61.30378619 -55.32962818 59.34249556 -55.36425781 57.38134766 C-55.41280421 54.56137305 -55.43547486 51.74219135 -55.453125 48.921875 C-55.47377014 48.04569519 -55.49441528 47.16951538 -55.51568604 46.26678467 C-55.51793184 40.16732285 -55.51793184 40.16732285 -53.16308594 37.04003906 C-48.91611341 34.05274504 -45.15253227 34.43478593 -40.1171875 34.46484375 C-39.2321756 34.4662587 -38.3471637 34.46767365 -37.43533325 34.46913147 C-34.60268809 34.4747386 -31.77012136 34.48729229 -28.9375 34.5 C-27.01953239 34.50501408 -25.10156354 34.50957715 -23.18359375 34.51367188 C-18.47653218 34.52471034 -13.7695294 34.54197975 -9.0625 34.5625 C-9.08868408 33.71018799 -9.11486816 32.85787598 -9.1418457 31.97973633 C-9.22731492 28.80222873 -9.28986789 25.6253089 -9.3371582 22.44702148 C-9.36222617 21.07442898 -9.39629082 19.70196898 -9.43969727 18.32983398 C-9.50067531 16.35199304 -9.52611009 14.37315816 -9.55078125 12.39453125 C-9.57696533 11.20577393 -9.60314941 10.0170166 -9.63012695 8.79223633 C-8.74422172 3.75153082 -5.3856633 -0.18202043 0 0 Z M-37.0625 52.5625 C-37.0625 61.8025 -37.0625 71.0425 -37.0625 80.5625 C-12.6425 80.5625 11.7775 80.5625 36.9375 80.5625 C36.9375 71.3225 36.9375 62.0825 36.9375 52.5625 C12.5175 52.5625 -11.9025 52.5625 -37.0625 52.5625 Z M88.9375 52.5625 C88.9375 122.5225 88.9375 192.4825 88.9375 264.5625 C98.1775 264.5625 107.4175 264.5625 116.9375 264.5625 C117.9275 261.9225 118.9175 259.2825 119.9375 256.5625 C121.9375 254.5625 121.9375 254.5625 125.8125 254.1875 C128.82255365 254.27490628 129.79015608 254.46427072 132.375 256.1875 C133.9375 258.5625 133.9375 258.5625 134.9375 264.5625 C140.5475 264.5625 146.1575 264.5625 151.9375 264.5625 C152.9275 260.6025 152.9275 260.6025 153.9375 256.5625 C156.96294334 254.54553778 157.54817382 254.30438904 160.9375 254.375 C161.618125 254.38144531 162.29875 254.38789063 163 254.39453125 C164.9375 254.5625 164.9375 254.5625 167.9375 255.5625 C168.95682648 258.26889465 169.06545354 260.85404807 169.0761652 263.72477341 C169.08163964 264.55133556 169.08711409 265.37789772 169.09275442 266.22950721 C169.09373253 267.13222869 169.09471064 268.03495018 169.09571838 268.96502686 C169.10312535 270.40960561 169.10312535 270.40960561 169.11068195 271.88336778 C169.12607094 275.11853249 169.1344214 278.35367733 169.14282227 281.58886719 C169.15239968 283.90470047 169.16240968 286.22053201 169.17282104 288.53636169 C169.19989092 294.83136741 169.22088923 301.12638065 169.24082303 307.42141247 C169.26266972 313.9971218 169.29006485 320.57280792 169.31687927 327.14849854 C169.36130932 338.18801805 169.40197782 349.22754714 169.44018555 360.26708984 C169.47954907 371.63786753 169.52097735 383.0086346 169.56518555 394.37939453 C169.56790982 395.0802876 169.57063409 395.78118066 169.57344092 396.50331292 C169.58712054 400.01948726 169.60084078 403.53566143 169.61458123 407.05183554 C169.72851947 436.22203536 169.83452673 465.39225917 169.9375 494.5625 C190.3975 494.5625 210.8575 494.5625 231.9375 494.5625 C231.9375 348.7025 231.9375 202.8425 231.9375 52.5625 C184.7475 52.5625 137.5575 52.5625 88.9375 52.5625 Z M-72.0625 98.5625 C-72.0625 119.3525 -72.0625 140.1425 -72.0625 161.5625 C-63.88533203 161.65337891 -63.88533203 161.65337891 -55.54296875 161.74609375 C-52.0930909 161.78658008 -48.64322106 161.82734923 -45.19335938 161.86914062 C-39.71544085 161.93547271 -34.23752379 162.00074717 -28.75952148 162.05981445 C-24.34394544 162.1074914 -19.92844732 162.1598355 -15.51296425 162.21544075 C-13.82685596 162.23584919 -12.14072631 162.25456478 -10.45458031 162.27157402 C-8.09618779 162.29565145 -5.7379424 162.32570145 -3.37963867 162.35717773 C-2.32983322 162.36581093 -2.32983322 162.36581093 -1.25881958 162.37461853 C1.74443883 162.42029654 4.06374875 162.60458292 6.9375 163.5625 C7.66796875 165.62890625 7.66796875 165.62890625 8.125 168.125 C8.28355469 168.95128906 8.44210938 169.77757812 8.60546875 170.62890625 C8.76982422 171.58603516 8.76982422 171.58603516 8.9375 172.5625 C10.17838379 172.60008423 10.17838379 172.60008423 11.44433594 172.63842773 C15.19221192 172.75446349 18.93984125 172.877156 22.6875 173 C23.98945313 173.03931641 25.29140625 173.07863281 26.6328125 173.11914062 C27.88320312 173.16103516 29.13359375 173.20292969 30.421875 173.24609375 C31.57397461 173.28275146 32.72607422 173.31940918 33.91308594 173.35717773 C38.76629855 173.68665399 38.76629855 173.68665399 40.9375 174.5625 C42.14651009 178.18953026 42.72410475 181.80267363 41.9375 185.5625 C39.69276634 188.48300873 38.49461343 189.46490476 34.82128906 190.10839844 C33.03029785 190.13981934 33.03029785 190.13981934 31.203125 190.171875 C29.90761719 190.20410156 28.61210937 190.23632812 27.27734375 190.26953125 C25.91406698 190.28427469 24.55078555 190.29859222 23.1875 190.3125 C21.80855624 190.34066814 20.42964725 190.37059678 19.05078125 190.40234375 C15.6800065 190.4730593 12.30874907 190.52004094 8.9375 190.5625 C8.9375 199.8025 8.9375 209.0425 8.9375 218.5625 C17.9720206 218.85130692 17.9720206 218.85130692 27.00683594 219.13061523 C28.13379883 219.16872314 29.26076172 219.20683105 30.421875 219.24609375 C31.57397461 219.28275146 32.72607422 219.31940918 33.91308594 219.35717773 C38.76629855 219.68665399 38.76629855 219.68665399 40.9375 220.5625 C42.14651009 224.18953026 42.72410475 227.80267363 41.9375 231.5625 C39.69276634 234.48300873 38.49461343 235.46490476 34.82128906 236.10839844 C33.62729492 236.1293457 32.43330078 236.15029297 31.203125 236.171875 C29.90761719 236.20410156 28.61210937 236.23632812 27.27734375 236.26953125 C25.91406698 236.28427469 24.55078555 236.29859222 23.1875 236.3125 C21.80855624 236.34066814 20.42964725 236.37059678 19.05078125 236.40234375 C15.6800065 236.4730593 12.30874907 236.52004094 8.9375 236.5625 C8.9375 245.8025 8.9375 255.0425 8.9375 264.5625 C29.3975 264.5625 49.8575 264.5625 70.9375 264.5625 C70.9375 209.7825 70.9375 155.0025 70.9375 98.5625 C23.7475 98.5625 -23.4425 98.5625 -72.0625 98.5625 Z M-152.0625 179.5625 C-152.0625 283.5125 -152.0625 387.4625 -152.0625 494.5625 C-139.1925 494.5625 -126.3225 494.5625 -113.0625 494.5625 C-112.8130364 481.90790547 -112.8130364 481.90790547 -112.58447266 469.25292969 C-112.54925844 467.66339453 -112.51333627 466.07387484 -112.4765625 464.484375 C-112.46520264 463.66275879 -112.45384277 462.84114258 -112.44213867 461.99462891 C-112.24507632 454.22135009 -112.24507632 454.22135009 -110.0625 451.5625 C-106.6281979 449.92646801 -103.86445679 449.30851478 -100.07617188 449.2878418 C-99.11167114 449.27830978 -98.14717041 449.26877777 -97.15344238 449.25895691 C-96.1231189 449.25986832 -95.09279541 449.26077972 -94.03125 449.26171875 C-92.9625769 449.25743362 -91.89390381 449.2531485 -90.79284668 449.24873352 C-88.53687243 449.24299907 -86.2808797 449.24248342 -84.02490234 449.24682617 C-80.57487485 449.24998866 -77.12570295 449.22650639 -73.67578125 449.20117188 C-71.48177191 449.19889905 -69.28776027 449.19819531 -67.09375 449.19921875 C-65.54826477 449.18540413 -65.54826477 449.18540413 -63.97155762 449.17131042 C-58.33589405 449.2077058 -54.25907769 449.36592231 -50.0625 453.5625 C-49.9021444 456.59057044 -49.80289552 459.59835454 -49.74609375 462.62890625 C-49.7149221 463.99184059 -49.7149221 463.99184059 -49.68312073 465.38230896 C-49.61752328 468.29645946 -49.5586932 471.21070304 -49.5 474.125 C-49.45682446 476.09571291 -49.41321049 478.06641626 -49.36914062 480.03710938 C-49.26100314 484.87881209 -49.16200598 489.72058128 -49.0625 494.5625 C-35.8625 494.5625 -22.6625 494.5625 -9.0625 494.5625 C-9.0625 390.6125 -9.0625 286.6625 -9.0625 179.5625 C-56.2525 179.5625 -103.4425 179.5625 -152.0625 179.5625 Z M8.9375 282.5625 C8.9375 352.5225 8.9375 422.4825 8.9375 494.5625 C56.1275 494.5625 103.3175 494.5625 151.9375 494.5625 C151.9375 424.6025 151.9375 354.6425 151.9375 282.5625 C104.7475 282.5625 57.5575 282.5625 8.9375 282.5625 Z M-95.0625 466.5625 C-95.0625 475.8025 -95.0625 485.0425 -95.0625 494.5625 C-93.4125 494.5625 -91.7625 494.5625 -90.0625 494.5625 C-90.01351562 493.45390625 -89.96453125 492.3453125 -89.9140625 491.203125 C-89.83900785 489.73955935 -89.76346119 488.27601888 -89.6875 486.8125 C-89.64109375 485.71808594 -89.64109375 485.71808594 -89.59375 484.6015625 C-89.21296066 477.62042455 -89.21296066 477.62042455 -87.0625 474.5625 C-84.10492408 472.83724738 -82.3679394 472.54417364 -78.9375 472.75 C-75.89151739 473.61082117 -74.97851221 474.13453653 -73.0625 476.5625 C-72.63012695 478.55541992 -72.63012695 478.55541992 -72.55078125 480.79296875 C-72.49760742 481.99663086 -72.49760742 481.99663086 -72.44335938 483.22460938 C-72.42080078 484.05798828 -72.39824219 484.89136719 -72.375 485.75 C-72.32375977 487.0174707 -72.32375977 487.0174707 -72.27148438 488.31054688 C-72.18908529 490.39406649 -72.12411355 492.47826216 -72.0625 494.5625 C-70.4125 494.5625 -68.7625 494.5625 -67.0625 494.5625 C-67.0625 485.3225 -67.0625 476.0825 -67.0625 466.5625 C-76.3025 466.5625 -85.5425 466.5625 -95.0625 466.5625 Z " fill="#000000" transform="translate(216.0625,-0.5625)"/>
<path d="M0 0 C3.9375 0.5625 3.9375 0.5625 6.375 2.4375 C9.11471405 6.16351111 9.06664516 8.45416867 9.07794189 13.07136536 C9.08091302 13.74741607 9.08388414 14.42346678 9.0869453 15.12000388 C9.09564998 17.39617707 9.09714203 19.67229778 9.09863281 21.94848633 C9.10325976 23.57611708 9.10828425 25.20374673 9.11367798 26.83137512 C9.1268164 31.26120278 9.13324981 35.69101528 9.13768864 40.12085938 C9.1406172 42.88716668 9.14472161 45.65346981 9.14919281 48.41977501 C9.1628719 57.0711429 9.17253639 65.72250129 9.1763947 74.37387925 C9.18087581 84.36748836 9.19842442 94.36096073 9.2273953 104.35452825 C9.24899927 112.07433091 9.2590983 119.79409506 9.26043582 127.51392764 C9.26148483 132.12682419 9.26741279 136.73959227 9.28525543 141.35245705 C9.30171382 145.69200938 9.30390253 150.03133635 9.29511642 154.37090874 C9.29434483 155.96363554 9.29870484 157.55637434 9.30857468 159.14907074 C9.32126127 161.32387766 9.31543598 163.49788251 9.30499268 165.67268372 C9.30645924 166.8896182 9.3079258 168.10655268 9.3094368 169.36036396 C8.89851092 172.89817083 8.07724489 174.74163018 5.9375 177.5625 C2.44945905 179.88786063 1.03609246 179.89707898 -3.0625 179.5625 C-6.40515205 178.35543121 -7.00954566 177.64193151 -9.0625 174.5625 C-9.32256222 171.56798744 -9.32256222 171.56798744 -9.33665466 167.81948853 C-9.34189134 167.13033273 -9.34712802 166.44117694 -9.35252339 165.73113763 C-9.3675528 163.41656597 -9.36822917 161.10221481 -9.36889648 158.78759766 C-9.37651599 157.13026047 -9.38494313 155.47292683 -9.39411926 153.81559753 C-9.41609145 149.30937804 -9.42486678 144.80322641 -9.42994571 140.2969594 C-9.43358599 137.48256529 -9.43982431 134.66818904 -9.4469471 131.85380173 C-9.47145078 122.03794318 -9.48449553 112.22213756 -9.48803711 102.40625 C-9.49167339 93.25222106 -9.52157298 84.0985272 -9.56344169 74.9446007 C-9.59811471 67.08888904 -9.61358503 59.23328858 -9.61428314 51.37750089 C-9.61507697 46.68404903 -9.62386365 41.99093837 -9.65228081 37.29756546 C-9.6784105 32.88318323 -9.68069548 28.46942632 -9.66462517 24.05500221 C-9.6628066 22.43485338 -9.66953815 20.81466902 -9.68544388 19.19459724 C-9.70584119 16.9821478 -9.69539376 14.77189943 -9.67723083 12.55947876 C-9.67924216 11.32172007 -9.68125349 10.08396137 -9.68332577 8.80869484 C-8.72098316 3.77676516 -5.407003 -0.18274165 0 0 Z " fill="#000000" transform="translate(331.0625,298.4375)"/>
<path d="M0 0 C3.9375 0.5625 3.9375 0.5625 6.375 2.375 C9.14953953 6.25935534 9.06649485 9.5069474 9.07794189 14.15365601 C9.08091302 14.82647759 9.08388414 15.49929918 9.0869453 16.19250929 C9.09563146 18.45175701 9.09714046 20.71095174 9.09863281 22.97021484 C9.103261 24.588141 9.10828567 26.20606607 9.11367798 27.82398987 C9.12680289 32.22276757 9.13324698 36.62153001 9.13768864 41.02032423 C9.14061889 43.76770833 9.14472358 46.51508825 9.14919281 49.26247025 C9.16286726 57.85616962 9.17253448 66.44985946 9.1763947 75.04356897 C9.18087709 84.96811781 9.1984336 94.89252904 9.2273953 104.81703603 C9.2489989 112.48590388 9.25909826 120.15473297 9.26043582 127.82363093 C9.26148469 132.40521382 9.26741003 136.98666734 9.28525543 141.56821823 C9.30171356 145.87741559 9.30390267 150.18638601 9.29511642 154.49560356 C9.29434487 156.07704335 9.29870441 157.65849523 9.30857468 159.2399044 C9.32126211 161.39933298 9.3154356 163.55795388 9.30499268 165.71737671 C9.30645924 166.92563803 9.3079258 168.13389935 9.3094368 169.37877464 C8.89743543 172.90544697 8.06915578 174.748717 5.9375 177.5625 C2.44945905 179.88786063 1.03609246 179.89707898 -3.0625 179.5625 C-6.40515205 178.35543121 -7.00954566 177.64193151 -9.0625 174.5625 C-9.32256222 171.56798744 -9.32256222 171.56798744 -9.33665466 167.81948853 C-9.34189134 167.13033273 -9.34712802 166.44117694 -9.35252339 165.73113763 C-9.3675528 163.41656597 -9.36822917 161.10221481 -9.36889648 158.78759766 C-9.37651599 157.13026047 -9.38494313 155.47292683 -9.39411926 153.81559753 C-9.41609145 149.30937804 -9.42486678 144.80322641 -9.42994571 140.2969594 C-9.43358599 137.48256529 -9.43982431 134.66818904 -9.4469471 131.85380173 C-9.47145078 122.03794318 -9.48449553 112.22213756 -9.48803711 102.40625 C-9.49167339 93.25222106 -9.52157298 84.0985272 -9.56344169 74.9446007 C-9.59811471 67.08888904 -9.61358503 59.23328858 -9.61428314 51.37750089 C-9.61507697 46.68404903 -9.62386365 41.99093837 -9.65228081 37.29756546 C-9.6784105 32.88318323 -9.68069548 28.46942632 -9.66462517 24.05500221 C-9.6628066 22.43485338 -9.66953815 20.81466902 -9.68544388 19.19459724 C-9.70584119 16.9821478 -9.69539376 14.77189943 -9.67723083 12.55947876 C-9.67924216 11.32172007 -9.68125349 10.08396137 -9.68332577 8.80869484 C-8.72098316 3.77676516 -5.407003 -0.18274165 0 0 Z " fill="#000000" transform="translate(262.0625,298.4375)"/>
<path d="M0 0 C3.45200169 0.88943467 4.92611671 2.85208553 7.16796875 5.55859375 C7.79438114 8.80199528 7.79438114 8.80199528 7.79615784 12.54884338 C7.80679942 13.5861987 7.80679942 13.5861987 7.81765598 14.64451069 C7.83522134 16.95571568 7.81714112 19.26523554 7.79907227 21.57641602 C7.80421165 23.23567469 7.81149308 24.89492791 7.820755 26.5541687 C7.83927348 31.05626927 7.82632837 35.55777784 7.80666471 40.05985379 C7.79028325 44.770536 7.79909027 49.48118058 7.80418396 54.19187927 C7.80870504 62.1015672 7.79283312 70.01101865 7.76489258 77.9206543 C7.73282952 87.06791456 7.73286063 96.21474857 7.75010735 105.36203915 C7.7659645 114.15975327 7.75924483 122.95731097 7.74217033 131.75501823 C7.73529416 135.50018408 7.73633804 139.24522476 7.74371529 142.99038887 C7.75136995 147.39904416 7.73927908 151.80721359 7.71186638 156.21578598 C7.70497323 157.83471548 7.70489454 159.45369027 7.71208191 161.07261848 C7.72075629 163.28073245 7.70485769 165.48733993 7.68263245 167.69532776 C7.67982553 168.93141061 7.6770186 170.16749346 7.67412663 171.44103336 C7.06967382 175.16401827 6.15795224 176.32619978 3.16796875 178.55859375 C-0.73465174 179.62294479 -2.89083054 179.9559896 -6.64453125 178.37109375 C-9.01074889 176.41051342 -9.7488622 175.39858523 -10.83203125 172.55859375 C-11.08650684 169.50350285 -11.08650684 169.50350285 -11.09272766 165.84718323 C-11.09655321 165.17350722 -11.10037876 164.49983121 -11.10432023 163.80574077 C-11.11463477 161.5495322 -11.1106611 159.29357884 -11.10668945 157.03735352 C-11.11103678 155.41927861 -11.11622 153.80120577 -11.12217712 152.18313599 C-11.13557597 147.78852602 -11.13614482 143.394002 -11.13361382 138.99937558 C-11.13254474 135.33129461 -11.13742587 131.66323108 -11.14221925 127.99515384 C-11.15331744 119.34205221 -11.15375004 110.68899398 -11.14770508 102.03588867 C-11.14166369 93.10743402 -11.15397975 84.17913689 -11.17527515 75.25070912 C-11.19288446 67.58606001 -11.19889358 59.92146108 -11.1956374 52.25679249 C-11.19382337 47.67858819 -11.19647271 43.10049626 -11.21035194 38.52231026 C-11.22291483 34.21718923 -11.22100086 29.912314 -11.20794106 25.60719681 C-11.20557238 24.02737406 -11.2083204 22.4475341 -11.21656418 20.86773109 C-11.22700908 18.7105307 -11.21895005 16.55415847 -11.20625305 14.39698792 C-11.20642079 13.19002542 -11.20658854 11.98306292 -11.20676136 10.73952579 C-10.35993099 3.55112598 -7.02383669 0.42115849 0 0 Z " fill="#000000" transform="translate(297.83203125,298.44140625)"/>
<path d="M0 0 C0.71577713 -0.00335861 1.43155426 -0.00671722 2.16902161 -0.01017761 C4.53595717 -0.01967918 6.90282194 -0.02163027 9.26977539 -0.02270508 C10.91500376 -0.02591801 12.56023183 -0.02928211 14.20545959 -0.03279114 C17.65455793 -0.03878027 21.10363121 -0.04063124 24.55273438 -0.04003906 C28.97243475 -0.03993741 33.39197461 -0.0535941 37.81163692 -0.07081127 C41.2096887 -0.08192882 44.60770163 -0.08395835 48.00576973 -0.08342934 C49.63525509 -0.08460965 51.26474144 -0.08903431 52.89420891 -0.0967617 C55.17307669 -0.10655748 57.45159536 -0.1036854 59.73046875 -0.09765625 C61.67547523 -0.09979378 61.67547523 -0.09979378 63.65977478 -0.10197449 C66.75280604 0.1318722 68.41750274 0.38687242 70.92993164 2.14526367 C73.04205668 5.31345123 73.26149628 7.27745619 73.48852539 11.01245117 C72.58622153 14.45761138 70.64716602 15.91761535 67.92993164 18.14526367 C65.20263293 18.64656467 63.09417044 18.84161836 60.37329102 18.80810547 C59.62956741 18.81847336 58.88584381 18.82884125 58.11958313 18.83952332 C55.67038193 18.86654498 53.22297741 18.85694406 50.77368164 18.84448242 C49.06644187 18.85039293 47.35920625 18.85764033 45.65197754 18.86616516 C42.07757946 18.87803696 38.50380441 18.8713518 34.92944336 18.85205078 C30.35234527 18.82915766 25.77710278 18.85595051 21.20018768 18.89711285 C17.67587707 18.92270619 14.15200964 18.92010711 10.62763977 18.90921974 C8.94035659 18.90773438 7.25303923 18.91540789 5.56584167 18.93247032 C3.20494512 18.9524718 0.84731881 18.93403653 -1.51342773 18.90576172 C-2.55469063 18.92633636 -2.55469063 18.92633636 -3.61698914 18.94732666 C-6.37666469 18.88138046 -8.48016788 18.6384865 -10.63447571 16.83724403 C-12.5405178 14.63428817 -13.95581472 12.82483478 -14.44506836 9.91479492 C-13.89315837 7.03451465 -13.40811278 4.621599 -11.69506836 2.20776367 C-7.93743822 -0.24914834 -4.35380734 0.01280666 0 0 Z " fill="#000000" transform="translate(186.070068359375,125.854736328125)"/>
<path d="M0 0 C2.1875 1.4296875 2.1875 1.4296875 4 4 C4.59563158 7.34240954 4.55805731 10.61332341 4.5 14 C4.51546875 14.90234375 4.5309375 15.8046875 4.546875 16.734375 C4.5081313 23.28205964 4.5081313 23.28205964 2.18359375 26.56640625 C-0.92428687 28.60682161 -3.30111126 28.93510722 -7 29 C-9.78543997 27.82392534 -11.39596455 26.874373 -13.1171875 24.3828125 C-14.38087715 20.97196874 -14.32885426 17.65062536 -14.3125 14.0625 C-14.32861328 13.35931641 -14.34472656 12.65613281 -14.36132812 11.93164062 C-14.36555195 7.42482277 -13.74285863 4.59199914 -11 1 C-7.44544736 -1.79286279 -4.2131487 -1.05328717 0 0 Z " fill="#000000" transform="translate(140,334)"/>
<path d="M0 0 C2.25726011 1.89121793 3.68646424 3.37292849 5 6 C5.15112939 8.61860735 5.23133862 11.19290882 5.25 13.8125 C5.270625 14.52470703 5.29125 15.23691406 5.3125 15.97070312 C5.34621339 20.52622493 4.7873394 23.37235975 2 27 C-0.6740203 29.10101595 -2.04284685 28.99846976 -5.5 28.875 C-9.53085561 27.8672861 -10.62386592 27.36960393 -13 24 C-13.59563158 20.65759046 -13.55805731 17.38667659 -13.5 14 C-13.51546875 13.09765625 -13.5309375 12.1953125 -13.546875 11.265625 C-13.50806136 4.70611917 -13.50806136 4.70611917 -11.15625 1.4375 C-7.17025663 -1.21982891 -4.54160592 -1.20491586 0 0 Z " fill="#000000" transform="translate(174,334)"/>
<path d="M0 0 C2.1875 1.4296875 2.1875 1.4296875 4 4 C4.59563158 7.34240954 4.55805731 10.61332341 4.5 14 C4.51546875 14.90234375 4.5309375 15.8046875 4.546875 16.734375 C4.5081313 23.28205964 4.5081313 23.28205964 2.18359375 26.56640625 C-0.92428687 28.60682161 -3.30111126 28.93510722 -7 29 C-9.78543997 27.82392534 -11.39596455 26.874373 -13.1171875 24.3828125 C-14.38087715 20.97196874 -14.32885426 17.65062536 -14.3125 14.0625 C-14.32861328 13.35931641 -14.34472656 12.65613281 -14.36132812 11.93164062 C-14.36555195 7.42482277 -13.74285863 4.59199914 -11 1 C-7.44544736 -1.79286279 -4.2131487 -1.05328717 0 0 Z " fill="#000000" transform="translate(416,81)"/>
<path d="M0 0 C2.64365079 1.87613927 2.95241281 2.85723843 4 6 C4.14821529 8.63937224 4.23097341 11.23506123 4.25 13.875 C4.270625 14.58269531 4.29125 15.29039063 4.3125 16.01953125 C4.34630586 20.55796854 3.77262707 23.38471177 1 27 C-1.6740203 29.10101595 -3.04284685 28.99846976 -6.5 28.875 C-10.53085561 27.8672861 -11.62386592 27.36960393 -14 24 C-14.59563158 20.65759046 -14.55805731 17.38667659 -14.5 14 C-14.51546875 13.09765625 -14.5309375 12.1953125 -14.546875 11.265625 C-14.50792327 4.6827821 -14.50792327 4.6827821 -12.09375 1.4375 C-7.9738032 -1.39112019 -4.77540902 -1.11556686 0 0 Z " fill="#000000" transform="translate(382,81)"/>
<path d="M0 0 C3.57709526 0.93685828 4.94568838 2.61870945 7.1328125 5.55859375 C7.85299533 8.74634263 7.83260586 11.80258929 7.7578125 15.05859375 C7.78681641 16.32123047 7.78681641 16.32123047 7.81640625 17.609375 C7.78177412 22.00765516 7.54729136 24.00382974 4.84765625 27.6171875 C0.75872871 30.54121194 -0.93771045 30.26280476 -5.8671875 29.55859375 C-8.29838373 27.68844281 -9.50787923 26.2772103 -10.8671875 23.55859375 C-10.99198166 20.75507837 -11.05235888 17.98725635 -11.0546875 15.18359375 C-11.06693359 14.4153125 -11.07917969 13.64703125 -11.09179688 12.85546875 C-11.1106657 5.58468063 -11.1106657 5.58468063 -8.8671875 2.55859375 C-5.69899994 0.44646871 -3.73499498 0.22702911 0 0 Z " fill="#000000" transform="translate(136.8671875,390.44140625)"/>
<path d="M0 0 C2.25726011 1.89121793 3.68646424 3.37292849 5 6 C5.17778623 8.59975932 5.27753022 11.14824807 5.3125 13.75 C5.34150391 14.45382812 5.37050781 15.15765625 5.40039062 15.8828125 C5.46228701 21.00592865 4.49152688 24.01317771 1 28 C-2.37319957 29.47577481 -5.85838835 29.36050894 -9.375 28.25 C-11.67854587 26.47804164 -12.89213882 24.78448615 -13.29052734 21.88696289 C-13.33959345 19.27828132 -13.3713069 16.67167814 -13.375 14.0625 C-13.39949219 13.15564453 -13.42398438 12.24878906 -13.44921875 11.31445312 C-13.47855866 4.66896391 -13.47855866 4.66896391 -11.1640625 1.43359375 C-7.16930623 -1.21275201 -4.5453209 -1.20590146 0 0 Z " fill="#000000" transform="translate(105,334)"/>
<path d="M0 0 C2.1875 1.4296875 2.1875 1.4296875 4 4 C4.59563158 7.34240954 4.55805731 10.61332341 4.5 14 C4.51546875 14.90234375 4.5309375 15.8046875 4.546875 16.734375 C4.5081313 23.28205964 4.5081313 23.28205964 2.18359375 26.56640625 C-0.92428687 28.60682161 -3.30111126 28.93510722 -7 29 C-9.78543997 27.82392534 -11.39596455 26.874373 -13.1171875 24.3828125 C-14.38087715 20.97196874 -14.32885426 17.65062536 -14.3125 14.0625 C-14.32861328 13.35931641 -14.34472656 12.65613281 -14.36132812 11.93164062 C-14.36555195 7.42482277 -13.74285863 4.59199914 -11 1 C-7.44544736 -1.79286279 -4.2131487 -1.05328717 0 0 Z " fill="#000000" transform="translate(416,311)"/>
<path d="M0 0 C3.57709526 0.93685828 4.94568838 2.61870945 7.1328125 5.55859375 C7.85299533 8.74634263 7.83260586 11.80258929 7.7578125 15.05859375 C7.78681641 16.32123047 7.78681641 16.32123047 7.81640625 17.609375 C7.78177412 22.00765516 7.54729136 24.00382974 4.84765625 27.6171875 C0.75872871 30.54121194 -0.93771045 30.26280476 -5.8671875 29.55859375 C-8.29838373 27.68844281 -9.50787923 26.2772103 -10.8671875 23.55859375 C-10.99198166 20.75507837 -11.05235888 17.98725635 -11.0546875 15.18359375 C-11.06693359 14.4153125 -11.07917969 13.64703125 -11.09179688 12.85546875 C-11.1106657 5.58468063 -11.1106657 5.58468063 -8.8671875 2.55859375 C-5.69899994 0.44646871 -3.73499498 0.22702911 0 0 Z " fill="#000000" transform="translate(136.8671875,275.44140625)"/>
<path d="M0 0 C3.43038665 1.39157194 4.41261418 3.61227219 6.0703125 6.83984375 C6.43225164 9.69260812 6.58967664 12.07406975 6.5078125 14.90234375 C6.51490234 15.59650391 6.52199219 16.29066406 6.52929688 17.00585938 C6.47445393 21.448138 5.75388442 24.29487838 3.0703125 27.83984375 C0.3962922 29.9408597 -0.97253435 29.83831351 -4.4296875 29.71484375 C-8.46054311 28.70712985 -9.55355342 28.20944768 -11.9296875 24.83984375 C-12.52531908 21.49743421 -12.48774481 18.22652034 -12.4296875 14.83984375 C-12.44515625 13.9375 -12.460625 13.03515625 -12.4765625 12.10546875 C-12.43761077 5.52262585 -12.43761077 5.52262585 -10.0234375 2.27734375 C-6.46320581 -0.16699443 -4.33498323 -0.20603532 0 0 Z " fill="#000000" transform="translate(172.9296875,218.16015625)"/>
<path d="M0 0 C2.1875 1.4296875 2.1875 1.4296875 4 4 C4.59563158 7.34240954 4.55805731 10.61332341 4.5 14 C4.51546875 14.90234375 4.5309375 15.8046875 4.546875 16.734375 C4.5081313 23.28205964 4.5081313 23.28205964 2.18359375 26.56640625 C-0.92428687 28.60682161 -3.30111126 28.93510722 -7 29 C-9.78543997 27.82392534 -11.39596455 26.874373 -13.1171875 24.3828125 C-14.38087715 20.97196874 -14.32885426 17.65062536 -14.3125 14.0625 C-14.32861328 13.35931641 -14.34472656 12.65613281 -14.36132812 11.93164062 C-14.36555195 7.42482277 -13.74285863 4.59199914 -11 1 C-7.44544736 -1.79286279 -4.2131487 -1.05328717 0 0 Z " fill="#000000" transform="translate(140,219)"/>
<path d="M0 0 C2.58455285 1.89533875 2.96275506 2.88826517 4 6 C4.14821529 8.63937224 4.23097341 11.23506123 4.25 13.875 C4.270625 14.58269531 4.29125 15.29039062 4.3125 16.01953125 C4.34630586 20.55796854 3.77262707 23.38471177 1 27 C-1.6740203 29.10101595 -3.04284685 28.99846976 -6.5 28.875 C-10.53085561 27.8672861 -11.62386592 27.36960393 -14 24 C-14.59563158 20.65759046 -14.55805731 17.38667659 -14.5 14 C-14.51546875 13.09765625 -14.5309375 12.1953125 -14.546875 11.265625 C-14.50806136 4.70611917 -14.50806136 4.70611917 -12.15625 1.4375 C-7.88999287 -1.40667142 -4.89142764 -1.04816307 0 0 Z " fill="#000000" transform="translate(382,196)"/>
<path d="M0 0 C2.19140625 1.42578125 2.19140625 1.42578125 4 4 C4.59520042 7.34251423 4.55805807 10.61327899 4.5 14 C4.51546875 14.90234375 4.5309375 15.8046875 4.546875 16.734375 C4.5081313 23.28205964 4.5081313 23.28205964 2.18359375 26.56640625 C-0.92428687 28.60682161 -3.30111126 28.93510722 -7 29 C-9.78689086 27.82331275 -11.39772422 26.87699806 -13.11328125 24.37890625 C-14.37662199 20.98959122 -14.36845116 17.69411632 -14.375 14.125 C-14.39949219 13.43019531 -14.42398437 12.73539063 -14.44921875 12.01953125 C-14.47832996 6.86684681 -13.31473268 3.91305988 -10 0 C-6.19426871 -1.2685771 -3.89430952 -0.88817586 0 0 Z " fill="#000000" transform="translate(347,196)"/>
<path d="M0 0 C2.43119623 1.87015094 3.64069173 3.28138345 5 6 C5.12479416 8.80351538 5.18517138 11.5713374 5.1875 14.375 C5.19974609 15.14328125 5.21199219 15.9115625 5.22460938 16.703125 C5.2434782 23.97391312 5.2434782 23.97391312 3 27 C-0.16818756 29.11212504 -2.13219252 29.33156464 -5.8671875 29.55859375 C-9.44428276 28.62173547 -10.81287588 26.9398843 -13 24 C-13.72018283 20.81225112 -13.69979336 17.75600446 -13.625 14.5 C-13.64433594 13.65824219 -13.66367187 12.81648437 -13.68359375 11.94921875 C-13.64896162 7.55093859 -13.41447886 5.55476401 -10.71484375 1.94140625 C-6.62591621 -0.98261819 -4.92947705 -0.70421101 0 0 Z " fill="#000000" transform="translate(381,138)"/>
<path d="M0 0 C2.1875 1.4296875 2.1875 1.4296875 4 4 C4.59563158 7.34240954 4.55805731 10.61332341 4.5 14 C4.51546875 14.90234375 4.5309375 15.8046875 4.546875 16.734375 C4.5081313 23.28205964 4.5081313 23.28205964 2.18359375 26.56640625 C-0.92428687 28.60682161 -3.30111126 28.93510722 -7 29 C-9.78543997 27.82392534 -11.39596455 26.874373 -13.1171875 24.3828125 C-14.38087715 20.97196874 -14.32885426 17.65062536 -14.3125 14.0625 C-14.32861328 13.35931641 -14.34472656 12.65613281 -14.36132812 11.93164062 C-14.36555195 7.42482277 -13.74285863 4.59199914 -11 1 C-7.44544736 -1.79286279 -4.2131487 -1.05328717 0 0 Z " fill="#000000" transform="translate(347,81)"/>
<path d="M0 0 C2.3181362 1.89111111 3.66914015 3.33828031 5 6 C5.15112939 8.61860735 5.23133862 11.19290882 5.25 13.8125 C5.270625 14.52470703 5.29125 15.23691406 5.3125 15.97070312 C5.34621339 20.52622493 4.7873394 23.37235975 2 27 C-0.6740203 29.10101595 -2.04284685 28.99846976 -5.5 28.875 C-9.53085561 27.8672861 -10.62386592 27.36960393 -13 24 C-13.59563158 20.65759046 -13.55805731 17.38667659 -13.5 14 C-13.51546875 13.09765625 -13.5309375 12.1953125 -13.546875 11.265625 C-13.50792327 4.6827821 -13.50792327 4.6827821 -11.09375 1.4375 C-7.02417768 -1.35653473 -4.85574092 -1.08835572 0 0 Z " fill="#000000" transform="translate(105,219)"/>
<path d="M0 0 C2.1875 1.4296875 2.1875 1.4296875 4 4 C4.59563158 7.34240954 4.55805731 10.61332341 4.5 14 C4.51546875 14.90234375 4.5309375 15.8046875 4.546875 16.734375 C4.5081313 23.28205964 4.5081313 23.28205964 2.18359375 26.56640625 C-0.92428687 28.60682161 -3.30111126 28.93510722 -7 29 C-9.78543997 27.82392534 -11.39596455 26.874373 -13.1171875 24.3828125 C-14.38087715 20.97196874 -14.32885426 17.65062536 -14.3125 14.0625 C-14.32861328 13.35931641 -14.34472656 12.65613281 -14.36132812 11.93164062 C-14.36555195 7.42482277 -13.74285863 4.59199914 -11 1 C-7.44544736 -1.79286279 -4.2131487 -1.05328717 0 0 Z " fill="#000000" transform="translate(416,196)"/>
<path d="M0 0 C2.15234375 1.4296875 2.15234375 1.4296875 4 4 C4.59893246 7.34165375 4.55805264 10.61359624 4.5 14 C4.51546875 14.90234375 4.5309375 15.8046875 4.546875 16.734375 C4.5081313 23.28205964 4.5081313 23.28205964 2.18359375 26.56640625 C-0.92428687 28.60682161 -3.30111126 28.93510722 -7 29 C-9.80358637 27.81626353 -11.40941715 26.87348442 -13.1171875 24.34765625 C-14.35424454 21.05796032 -14.30200258 18.13113809 -14.3125 14.625 C-14.32925781 13.33851563 -14.34601563 12.05203125 -14.36328125 10.7265625 C-13.97720927 6.76621122 -13.09019322 4.36139247 -11 1 C-7.17488966 -1.37777129 -4.26298003 -1.26982384 0 0 Z " fill="#000000" transform="translate(416,426)"/>
<path d="M0 0 C2.96858157 2.20740681 3.82865791 3.48597373 5 7 C5.12139491 9.45612954 5.17542192 11.91590196 5.1875 14.375 C5.20167969 15.68210937 5.21585938 16.98921875 5.23046875 18.3359375 C5.01345318 21.78611716 4.6479888 23.98872479 3 27 C-0.16818756 29.11212504 -2.13219252 29.33156464 -5.8671875 29.55859375 C-9.44428276 28.62173547 -10.81287588 26.9398843 -13 24 C-13.72018283 20.81225112 -13.69979336 17.75600446 -13.625 14.5 C-13.64433594 13.65824219 -13.66367188 12.81648438 -13.68359375 11.94921875 C-13.64896162 7.55093859 -13.41447886 5.55476401 -10.71484375 1.94140625 C-6.62591621 -0.98261819 -4.92947705 -0.70421101 0 0 Z " fill="#000000" transform="translate(174,391)"/>
<path d="M0 0 C2.96858157 2.20740681 3.82865791 3.48597373 5 7 C5.12139491 9.45612954 5.17542192 11.91590196 5.1875 14.375 C5.20167969 15.68210937 5.21585938 16.98921875 5.23046875 18.3359375 C5.01345318 21.78611716 4.6479888 23.98872479 3 27 C-0.16818756 29.11212504 -2.13219252 29.33156464 -5.8671875 29.55859375 C-9.44428276 28.62173547 -10.81287588 26.9398843 -13 24 C-13.72018283 20.81225112 -13.69979336 17.75600446 -13.625 14.5 C-13.64433594 13.65824219 -13.66367188 12.81648438 -13.68359375 11.94921875 C-13.64896162 7.55093859 -13.41447886 5.55476401 -10.71484375 1.94140625 C-6.62591621 -0.98261819 -4.92947705 -0.70421101 0 0 Z " fill="#000000" transform="translate(105,391)"/>
<path d="M0 0 C3.57709526 0.93685828 4.94568838 2.61870945 7.1328125 5.55859375 C7.85299533 8.74634263 7.83260586 11.80258929 7.7578125 15.05859375 C7.78681641 16.32123047 7.78681641 16.32123047 7.81640625 17.609375 C7.78177412 22.00765516 7.54729136 24.00382974 4.84765625 27.6171875 C0.75872871 30.54121194 -0.93771045 30.26280476 -5.8671875 29.55859375 C-8.83576907 27.35118694 -9.69584541 26.07262002 -10.8671875 22.55859375 C-10.98858241 20.10246421 -11.04260942 17.64269179 -11.0546875 15.18359375 C-11.06886719 13.87648437 -11.08304687 12.569375 -11.09765625 11.22265625 C-10.88064068 7.77247659 -10.5151763 5.56986896 -8.8671875 2.55859375 C-5.69899994 0.44646871 -3.73499498 0.22702911 0 0 Z " fill="#000000" transform="translate(343.8671875,137.44140625)"/>
<path d="M0 0 C3.60282111 0.92829445 4.96909362 2.59784421 7.16796875 5.55859375 C7.8878035 8.74643336 7.86776273 11.80256254 7.79296875 15.05859375 C7.82197266 16.32123047 7.82197266 16.32123047 7.8515625 17.609375 C7.81693037 22.00765516 7.58244761 24.00382974 4.8828125 27.6171875 C0.79388496 30.54121194 -0.9025542 30.26280476 -5.83203125 29.55859375 C-8.80061282 27.35118694 -9.66068916 26.07262002 -10.83203125 22.55859375 C-10.9787886 20.10323033 -11.05303823 17.64316823 -11.08203125 15.18359375 C-11.1078125 13.87648438 -11.13359375 12.569375 -11.16015625 11.22265625 C-10.49500718 3.79515833 -7.31780194 0.43878503 0 0 Z " fill="#000000" transform="translate(412.83203125,367.44140625)"/>
<path d="M0 0 C2.96858157 2.20740681 3.82865791 3.48597373 5 7 C5.14675735 9.45536342 5.22100698 11.91542552 5.25 14.375 C5.27578125 15.68210937 5.3015625 16.98921875 5.328125 18.3359375 C4.89686142 23.15171409 3.36463888 25.63536112 0 29 C-6.88715288 29.79032902 -6.88715288 29.79032902 -10.72265625 27.06640625 C-13.86360251 22.83717329 -13.74294212 19.63441362 -13.625 14.5 C-13.64433594 13.65824219 -13.66367188 12.81648438 -13.68359375 11.94921875 C-13.64896162 7.55093859 -13.41447886 5.55476401 -10.71484375 1.94140625 C-6.62591621 -0.98261819 -4.92947705 -0.70421101 0 0 Z " fill="#000000" transform="translate(174,276)"/>
<path d="M0 0 C2.96858157 2.20740681 3.82865791 3.48597373 5 7 C5.14675735 9.45536342 5.22100698 11.91542552 5.25 14.375 C5.27578125 15.68210937 5.3015625 16.98921875 5.328125 18.3359375 C4.89686142 23.15171409 3.36463888 25.63536112 0 29 C-6.88715288 29.79032902 -6.88715288 29.79032902 -10.72265625 27.06640625 C-13.86360251 22.83717329 -13.74294212 19.63441362 -13.625 14.5 C-13.64433594 13.65824219 -13.66367188 12.81648438 -13.68359375 11.94921875 C-13.64896162 7.55093859 -13.41447886 5.55476401 -10.71484375 1.94140625 C-6.62591621 -0.98261819 -4.92947705 -0.70421101 0 0 Z " fill="#000000" transform="translate(105,276)"/>
<path d="M0 0 C3.60282111 0.92829445 4.96909362 2.59784421 7.16796875 5.55859375 C7.8878035 8.74643336 7.86776273 11.80256254 7.79296875 15.05859375 C7.82197266 16.32123047 7.82197266 16.32123047 7.8515625 17.609375 C7.81693037 22.00765516 7.58244761 24.00382974 4.8828125 27.6171875 C0.79388496 30.54121194 -0.9025542 30.26280476 -5.83203125 29.55859375 C-8.80061282 27.35118694 -9.66068916 26.07262002 -10.83203125 22.55859375 C-10.9787886 20.10323033 -11.05303823 17.64316823 -11.08203125 15.18359375 C-11.1078125 13.87648438 -11.13359375 12.569375 -11.16015625 11.22265625 C-10.49500718 3.79515833 -7.31780194 0.43878503 0 0 Z " fill="#000000" transform="translate(412.83203125,252.44140625)"/>
<path d="M0 0 C3.60282111 0.92829445 4.96909362 2.59784421 7.16796875 5.55859375 C7.8878035 8.74643336 7.86776273 11.80256254 7.79296875 15.05859375 C7.82197266 16.32123047 7.82197266 16.32123047 7.8515625 17.609375 C7.81693037 22.00765516 7.58244761 24.00382974 4.8828125 27.6171875 C0.79388496 30.54121194 -0.9025542 30.26280476 -5.83203125 29.55859375 C-8.80061282 27.35118694 -9.66068916 26.07262002 -10.83203125 22.55859375 C-10.9787886 20.10323033 -11.05303823 17.64316823 -11.08203125 15.18359375 C-11.1078125 13.87648437 -11.13359375 12.569375 -11.16015625 11.22265625 C-10.49500718 3.79515833 -7.31780194 0.43878503 0 0 Z " fill="#000000" transform="translate(412.83203125,137.44140625)"/>
</svg>
